<svg version="1.1" xmlns="http://www.w3.org/2000/svg" xmlns:xlink="http://www.w3.org/1999/xlink" width="660" height="128"><defs><clipPath id="nhUkCAkoVnwi"><path fill="none" stroke="none" d=" M 0 0 L 660 0 L 660 128 L 0 128 L 0 0 Z"/></clipPath></defs><g transform="scale(1,1)" clip-path="url(#nhUkCAkoVnwi)"><g transform="translate(-70.99999999999997,-245)"><path fill="rgb(101,87,210)" stroke="none" paint-order="stroke fill markers" fill-rule="evenodd" d=" M 450 115 L 472 115 C 473.1045694996616 115 474 115.8954305003384 474 117 L 474 139 C 474 140.10456949966158 473.1045694996616 141 472 141 L 450 141 C 448.8954305003384 141 448 140.10456949966158 448 139 L 448 117 C 448 115.8954305003384 448.8954305003384 115 450 115 Z" fill-opacity="1"/><g transform="translate(448,115)"><path fill="none" stroke="rgb(255,255,255)" paint-order="fill stroke markers" d=" M 4.44 13.76 L 9.75 19.07 L 21.99 6.83" stroke-opacity="1" stroke-linecap="square" stroke-miterlimit="10" stroke-width="2.6"/><g transform="translate(-448,-115)"><text fill="rgb(0,0,0)" stroke="none" font-family="geogebra-sans-serif, sans-serif" font-size="32px" font-style="normal" font-weight="normal" text-decoration="normal" x="483" y="140" text-anchor="start" dominant-baseline="alphabetic" fill-opacity="1">Serif</text><g transform="scale(35,35)"><g transform="translate(2.3142857142857145,9.035714285714285)"><path fill="rgb(0,0,0)" stroke="none" paint-order="stroke fill markers" d=" M 0.482 -0.668 L 0.317 -0.011 Q 0.389 -0.011 0.447 -0.051000000000000004 Q 0.47600000000000003 -0.07100000000000001 0.505 -0.1 Q 0.554 -0.15 0.58 -0.221 Q 0.592 -0.255 0.592 -0.28200000000000003 Q 0.592 -0.331 0.556 -0.367 Q 0.541 -0.38 0.541 -0.394 Q 0.541 -0.419 0.5680000000000001 -0.435 Q 0.579 -0.442 0.591 -0.442 Q 0.621 -0.442 0.631 -0.404 L 0.631 -0.404 L 0.631 -0.403 Q 0.635 -0.39 0.635 -0.372 Q 0.635 -0.316 0.607 -0.226 L 0.607 -0.224 Q 0.605 -0.219 0.604 -0.216 Q 0.58 -0.151 0.531 -0.096 Q 0.437 0.011 0.312 0.011 L 0.274 0.16 Q 0.266 0.198 0.262 0.201 Q 0.26 0.20500000000000002 0.253 0.20500000000000002 Q 0.241 0.20500000000000002 0.241 0.195 Q 0.241 0.184 0.264 0.1 Q 0.275 0.058 0.28600000000000003 0.009000000000000001 Q 0.151 0.001 0.12 -0.085 Q 0.112 -0.107 0.112 -0.133 Q 0.112 -0.176 0.16 -0.302 Q 0.183 -0.364 0.183 -0.388 Q 0.183 -0.42 0.158 -0.42 Q 0.099 -0.42 0.064 -0.318 Q 0.06 -0.307 0.057 -0.296 Q 0.046 -0.279 0.041 -0.278 Q 0.029 -0.278 0.029 -0.28800000000000003 Q 0.029 -0.306 0.05 -0.35100000000000003 Q 0.094 -0.442 0.161 -0.442 Q 0.214 -0.442 0.23500000000000001 -0.397 Q 0.243 -0.38 0.243 -0.36 Q 0.243 -0.34400000000000003 0.232 -0.311 Q 0.178 -0.171 0.178 -0.125 Q 0.178 -0.026000000000000002 0.292 -0.013000000000000001 L 0.458 -0.674 Q 0.467 -0.6930000000000001 0.47300000000000003 -0.6940000000000001 Q 0.485 -0.6940000000000001 0.485 -0.683 Q 0.485 -0.68 0.482 -0.668 Z"/></g><g transform="translate(3.0012857142857143,9.035714285714285)"><path fill="rgb(0,0,0)" stroke="none" paint-order="stroke fill markers" d=" M 0.331 0.24 L 0.331 0.24 Q 0.331 0.25 0.321 0.25 Q 0.309 0.25 0.268 0.209 Q 0.20600000000000002 0.147 0.165 0.062 Q 0.099 -0.074 0.099 -0.25 Q 0.099 -0.419 0.162 -0.555 Q 0.214 -0.666 0.294 -0.733 Q 0.315 -0.75 0.321 -0.75 Q 0.331 -0.75 0.331 -0.74 Q 0.331 -0.735 0.318 -0.723 Q 0.157 -0.559 0.157 -0.25 Q 0.157 0.058 0.314 0.218 Q 0.331 0.23500000000000001 0.331 0.24 Z"/></g><g transform="translate(3.3902857142857146,9.035714285714285)"><path fill="rgb(0,0,0)" stroke="none" paint-order="stroke fill markers" d=" M 0.334 -0.302 L 0.3 -0.165 Q 0.28300000000000003 -0.097 0.28300000000000003 -0.077 Q 0.28300000000000003 -0.025 0.32 -0.014 Q 0.328 -0.011 0.338 -0.011 Q 0.388 -0.011 0.429 -0.061 Q 0.456 -0.093 0.47100000000000003 -0.14200000000000002 Q 0.47400000000000003 -0.153 0.484 -0.153 Q 0.496 -0.153 0.496 -0.14300000000000002 Q 0.496 -0.11800000000000001 0.465 -0.07100000000000001 Q 0.41100000000000003 0.011 0.336 0.011 Q 0.268 0.011 0.23700000000000002 -0.046 Q 0.231 -0.055 0.228 -0.065 Q 0.20400000000000001 -0.017 0.162 0.002 Q 0.14300000000000002 0.011 0.123 0.011 Q 0.063 0.011 0.039 -0.024 Q 0.029 -0.037 0.029 -0.055 Q 0.029 -0.092 0.061 -0.107 Q 0.07200000000000001 -0.113 0.084 -0.113 Q 0.114 -0.113 0.12 -0.088 Q 0.121 -0.083 0.121 -0.078 Q 0.121 -0.044 0.08700000000000001 -0.028 Q 0.081 -0.025 0.074 -0.024 Q 0.095 -0.011 0.124 -0.011 Q 0.177 -0.011 0.20800000000000002 -0.082 Q 0.214 -0.097 0.219 -0.115 Q 0.273 -0.319 0.273 -0.353 Q 0.267 -0.41500000000000004 0.219 -0.42 Q 0.167 -0.42 0.124 -0.367 L 0.124 -0.366 Q 0.124 -0.365 0.123 -0.365 Q 0.108 -0.34500000000000003 0.096 -0.319 Q 0.091 -0.307 0.08700000000000001 -0.295 L 0.085 -0.289 Q 0.083 -0.278 0.07200000000000001 -0.278 Q 0.06 -0.278 0.06 -0.28800000000000003 Q 0.06 -0.313 0.092 -0.36 Q 0.146 -0.442 0.221 -0.442 Q 0.298 -0.442 0.329 -0.366 Q 0.361 -0.428 0.41400000000000003 -0.44 Q 0.424 -0.442 0.434 -0.442 Q 0.493 -0.442 0.517 -0.40900000000000003 Q 0.527 -0.395 0.527 -0.376 Q 0.527 -0.335 0.49 -0.321 Q 0.481 -0.318 0.47300000000000003 -0.318 Q 0.442 -0.318 0.436 -0.34500000000000003 Q 0.435 -0.34900000000000003 0.435 -0.353 Q 0.435 -0.383 0.464 -0.4 Q 0.47300000000000003 -0.405 0.483 -0.40700000000000003 Q 0.462 -0.42 0.433 -0.42 Q 0.365 -0.42 0.337 -0.314 Q 0.335 -0.308 0.334 -0.302 Z"/></g><g transform="translate(3.9622857142857146,9.035714285714285)"><path fill="rgb(0,0,0)" stroke="none" paint-order="stroke fill markers" d=" M 0.203 -0.001 L 0.203 -0.001 Q 0.203 0.096 0.14 0.169 Q 0.123 0.189 0.112 0.193 Q 0.10200000000000001 0.193 0.10200000000000001 0.182 Q 0.10200000000000001 0.177 0.113 0.166 Q 0.17300000000000001 0.106 0.18 0.019 Q 0.181 0.009000000000000001 0.181 -0.001 Q 0.181 -0.016 0.179 -0.016 Q 0.178 -0.016 0.17400000000000002 -0.013000000000000001 Q 0.16 0 0.139 0 Q 0.10200000000000001 0 0.09 -0.034 Q 0.08600000000000001 -0.043000000000000003 0.08600000000000001 -0.053 Q 0.08600000000000001 -0.089 0.117 -0.10200000000000001 Q 0.127 -0.106 0.139 -0.106 Q 0.183 -0.106 0.198 -0.048 Q 0.203 -0.027 0.203 -0.001 Z"/></g><g transform="translate(4.406952380952382,9.035714285714285)"><path fill="rgb(0,0,0)" stroke="none" paint-order="stroke fill markers" d=" M 0.46 -0.32 Q 0.46 -0.17400000000000002 0.423 -0.094 Q 0.364 0.018000000000000002 0.249 0.022 Q 0.158 0.022 0.10300000000000001 -0.05 Q 0.092 -0.063 0.084 -0.079 Q 0.039 -0.162 0.039 -0.32 Q 0.039 -0.467 0.076 -0.547 Q 0.126 -0.659 0.23800000000000002 -0.666 L 0.25 -0.666 Q 0.339 -0.666 0.395 -0.595 L 0.395 -0.594 Q 0.40900000000000003 -0.5760000000000001 0.42 -0.554 Q 0.46 -0.46900000000000003 0.46 -0.32 M 0.249 0 L 0.249 0 Q 0.312 0 0.34600000000000003 -0.061 Q 0.36 -0.088 0.366 -0.125 Q 0.377 -0.189 0.377 -0.332 Q 0.377 -0.47100000000000003 0.367 -0.527 Q 0.34900000000000003 -0.622 0.275 -0.641 Q 0.262 -0.644 0.249 -0.644 Q 0.179 -0.644 0.147 -0.5740000000000001 Q 0.136 -0.55 0.13 -0.516 Q 0.122 -0.462 0.122 -0.332 Q 0.122 -0.181 0.133 -0.121 Q 0.151 -0.025 0.221 -0.004 Q 0.23500000000000001 0 0.249 0 Z"/></g><g transform="translate(4.906952380952382,9.035714285714285)"><path fill="rgb(0,0,0)" stroke="none" paint-order="stroke fill markers" d=" M 0.289 -0.25 L 0.289 -0.25 Q 0.289 -0.081 0.226 0.055 Q 0.17400000000000002 0.166 0.094 0.233 Q 0.073 0.25 0.067 0.25 Q 0.057 0.25 0.057 0.24 Q 0.057 0.23500000000000001 0.07 0.223 Q 0.231 0.059000000000000004 0.231 -0.25 Q 0.231 -0.555 0.081 -0.712 L 0.076 -0.717 Q 0.057 -0.735 0.057 -0.74 Q 0.057 -0.75 0.067 -0.75 Q 0.079 -0.75 0.12 -0.709 Q 0.182 -0.647 0.223 -0.562 Q 0.289 -0.426 0.289 -0.25 Z"/></g><g transform="translate(5.57373015873016,9.035714285714285)"><path fill="rgb(0,0,0)" stroke="none" paint-order="stroke fill markers" d=" M 0.687 -0.327 L 0.09 -0.327 Q 0.058 -0.327 0.056 -0.34700000000000003 Q 0.056 -0.367 0.089 -0.367 L 0.6880000000000001 -0.367 Q 0.72 -0.367 0.721 -0.34700000000000003 Q 0.721 -0.327 0.687 -0.327 M 0.6880000000000001 -0.133 L 0.089 -0.133 Q 0.057 -0.133 0.056 -0.153 Q 0.056 -0.17300000000000001 0.09 -0.17300000000000001 L 0.687 -0.17300000000000001 Q 0.719 -0.17300000000000001 0.721 -0.153 Q 0.721 -0.133 0.6880000000000001 -0.133 Z"/></g><g transform="translate(6.629507936507937,9.035714285714285)"><path fill="rgb(0,0,0)" stroke="none" paint-order="stroke fill markers" d=" M 0.179 -0.115 L 0.527 -0.6990000000000001 Q 0.537 -0.715 0.553 -0.716 Q 0.5680000000000001 -0.716 0.5700000000000001 -0.706 Q 0.5710000000000001 -0.7030000000000001 0.5720000000000001 -0.6920000000000001 L 0.633 -0.067 Q 0.636 -0.042 0.645 -0.037 L 0.646 -0.037 L 0.646 -0.037 L 0.646 -0.037 L 0.646 -0.037 L 0.646 -0.036000000000000004 Q 0.658 -0.031 0.6980000000000001 -0.031 Q 0.72 -0.031 0.721 -0.02 Q 0.721 0 0.7030000000000001 0 L 0.591 -0.003 L 0.59 -0.003 L 0.466 0 L 0.465 0 Q 0.451 0 0.451 -0.011 Q 0.459 -0.03 0.47500000000000003 -0.031 Q 0.547 -0.031 0.547 -0.064 Q 0.547 -0.063 0.531 -0.231 L 0.28 -0.231 L 0.20400000000000001 -0.10300000000000001 Q 0.19 -0.078 0.19 -0.066 Q 0.19 -0.035 0.23700000000000002 -0.031 Q 0.253 -0.031 0.253 -0.019 Q 0.253 0 0.234 0 L 0.138 -0.003 L 0.134 -0.003 L 0.05 0 L 0.048 0 Q 0.035 0 0.035 -0.011 Q 0.035 -0.029 0.05 -0.03 L 0.05 -0.031 L 0.056 -0.031 Q 0.11900000000000001 -0.035 0.159 -0.085 Q 0.169 -0.098 0.179 -0.115 M 0.299 -0.262 L 0.528 -0.262 L 0.496 -0.592 L 0.299 -0.262 Z"/></g><g transform="translate(7.546174603174604,9.035714285714285)"><path fill="rgb(0,0,0)" stroke="none" paint-order="stroke fill markers" d=" M 0.39 -0.231 L 0.39 -0.231 L 0.111 -0.231 Q 0.111 -0.129 0.14100000000000001 -0.081 Q 0.189 -0.019 0.254 -0.014 Q 0.323 -0.014 0.365 -0.07 Q 0.38 -0.09 0.389 -0.117 Q 0.392 -0.131 0.402 -0.131 Q 0.41500000000000004 -0.131 0.41500000000000004 -0.11900000000000001 Q 0.41500000000000004 -0.097 0.387 -0.059000000000000004 Q 0.34600000000000003 -0.003 0.279 0.008 Q 0.264 0.011 0.248 0.011 Q 0.154 0.011 0.088 -0.061 Q 0.028 -0.127 0.028 -0.22 Q 0.028 -0.324 0.1 -0.392 Q 0.158 -0.448 0.23600000000000002 -0.448 Q 0.34900000000000003 -0.448 0.394 -0.352 Q 0.41500000000000004 -0.307 0.41500000000000004 -0.252 Q 0.41500000000000004 -0.23500000000000001 0.40800000000000003 -0.232 Q 0.405 -0.231 0.39 -0.231 M 0.112 -0.252 L 0.112 -0.252 L 0.34900000000000003 -0.252 Q 0.34900000000000003 -0.34700000000000003 0.307 -0.395 Q 0.279 -0.426 0.23600000000000002 -0.426 Q 0.185 -0.426 0.15 -0.379 Q 0.115 -0.334 0.112 -0.252 Z"/></g><g transform="translate(7.990174603174604,9.035714285714285)"><path fill="rgb(0,0,0)" stroke="none" paint-order="stroke fill markers" d=" M 0.28700000000000003 -0.23500000000000001 L 0.421 -0.062 Q 0.442 -0.036000000000000004 0.47500000000000003 -0.032 Q 0.488 -0.031 0.516 -0.031 L 0.516 0 Q 0.47100000000000003 -0.003 0.42 -0.003 Q 0.402 -0.003 0.312 0 L 0.312 -0.031 Q 0.343 -0.032 0.34800000000000003 -0.056 Q 0.34800000000000003 -0.06 0.327 -0.089 L 0.251 -0.189 Q 0.17500000000000002 -0.099 0.165 -0.078 Q 0.161 -0.069 0.161 -0.062 Q 0.161 -0.035 0.19 -0.031 L 0.19 0 Q 0.11800000000000001 -0.003 0.095 -0.003 Q 0.051000000000000004 -0.003 0.012 0 L 0.012 -0.031 Q 0.09 -0.031 0.14 -0.091 L 0.234 -0.21 L 0.135 -0.339 Q 0.1 -0.384 0.085 -0.392 Q 0.08 -0.395 0.074 -0.396 L 0.073 -0.396 Q 0.059000000000000004 -0.4 0.017 -0.4 L 0.017 -0.431 Q 0.058 -0.428 0.112 -0.428 Q 0.14200000000000002 -0.428 0.22 -0.431 L 0.22 -0.4 Q 0.186 -0.398 0.185 -0.375 Q 0.185 -0.367 0.194 -0.357 L 0.272 -0.256 L 0.334 -0.334 Q 0.34900000000000003 -0.352 0.34900000000000003 -0.369 Q 0.34900000000000003 -0.397 0.32 -0.4 L 0.32 -0.431 Q 0.359 -0.428 0.41600000000000004 -0.428 Q 0.459 -0.428 0.498 -0.431 L 0.498 -0.4 Q 0.422 -0.398 0.379 -0.34800000000000003 Q 0.36 -0.327 0.28700000000000003 -0.23500000000000001 Z"/></g><g transform="translate(8.518174603174604,9.035714285714285)"><path fill="rgb(0,0,0)" stroke="none" paint-order="stroke fill markers" d=" M 0.17500000000000002 -0.337 L 0.17500000000000002 -0.114 Q 0.17500000000000002 -0.094 0.183 -0.081 L 0.189 -0.07200000000000001 Q 0.229 -0.011 0.294 -0.011 Q 0.357 -0.011 0.4 -0.077 Q 0.438 -0.135 0.438 -0.216 Q 0.438 -0.319 0.382 -0.379 Q 0.34700000000000003 -0.417 0.304 -0.417 Q 0.232 -0.417 0.186 -0.354 Q 0.18 -0.34600000000000003 0.17500000000000002 -0.337 M 0.17500000000000002 -0.059000000000000004 L 0.17500000000000002 -0.059000000000000004 L 0.17500000000000002 -0.05 L 0.17500000000000002 0.11800000000000001 Q 0.17500000000000002 0.152 0.191 0.158 Q 0.202 0.163 0.253 0.163 L 0.253 0.194 Q 0.148 0.191 0.14 0.191 Q 0.13 0.191 0.028 0.194 L 0.028 0.163 Q 0.08700000000000001 0.163 0.097 0.154 L 0.099 0.152 L 0.099 0.152 Q 0.106 0.14300000000000002 0.106 0.11800000000000001 L 0.106 -0.35000000000000003 Q 0.106 -0.385 0.092 -0.393 Q 0.079 -0.4 0.028 -0.4 L 0.028 -0.431 L 0.17200000000000001 -0.442 L 0.17200000000000001 -0.376 Q 0.232 -0.442 0.312 -0.442 Q 0.403 -0.442 0.465 -0.369 Q 0.521 -0.304 0.521 -0.216 Q 0.521 -0.112 0.444 -0.044 Q 0.38 0.011 0.298 0.011 Q 0.228 0.011 0.186 -0.04 Q 0.177 -0.051000000000000004 0.17500000000000002 -0.059000000000000004 Z"/></g><g transform="translate(9.074174603174605,7.325714285714285)"><path fill="rgb(0,0,0)" stroke="none" paint-order="stroke fill markers" d=" M 0.7138671875 2.9560546875 Q 0.57568359375 2.810546875 0.482421875 2.63525390625 Q 0.38916015625 2.4599609375 0.33544921875 2.267333984375 Q 0.28173828125 2.07470703125 0.2587890625 1.87255859375 Q 0.23583984375 1.67041015625 0.23583984375 1.4599609375 Q 0.23583984375 1.24853515625 0.2587890625 1.046142578125 Q 0.28173828125 0.84375 0.33544921875 0.651123046875 Q 0.38916015625 0.45849609375 0.482421875 0.282958984375 Q 0.57568359375 0.107421875 0.7138671875 -0.037109375 Q 0.7197265625 -0.0400390625 0.72119140625 -0.0400390625 L 0.75 -0.0400390625 Q 0.7529296875 -0.0400390625 0.75537109375 -0.036865234375 Q 0.7578125 -0.03369140625 0.7578125 -0.03076171875 Q 0.7578125 -0.02685546875 0.755859375 -0.02490234375 Q 0.63037109375 0.123046875 0.547607421875 0.299072265625 Q 0.46484375 0.47509765625 0.4189453125 0.665771484375 Q 0.373046875 0.8564453125 0.35498046875 1.05078125 Q 0.3369140625 1.2451171875 0.3369140625 1.4599609375 Q 0.3369140625 1.673828125 0.35498046875 1.86767578125 Q 0.373046875 2.0615234375 0.419189453125 2.2529296875 Q 0.46533203125 2.4443359375 0.5478515625 2.61962890625 Q 0.63037109375 2.794921875 0.755859375 2.94384765625 Q 0.7578125 2.94580078125 0.7578125 2.9501953125 Q 0.7578125 2.95263671875 0.755126953125 2.955810546875 Q 0.75244140625 2.958984375 0.75 2.958984375 L 0.72119140625 2.958984375 Q 0.7197265625 2.958984375 0.7177734375 2.9580078125 Q 0.7158203125 2.95703125 0.7138671875 2.9560546875 Z"/></g><g transform="translate(9.866174603174604,9.035714285714285)"><path fill="rgb(0,0,0)" stroke="none" paint-order="stroke fill markers" d=" M 0.661 -0.23 L 0.116 -0.23 Q 0.084 -0.23 0.083 -0.25 Q 0.083 -0.27 0.116 -0.27 L 0.661 -0.27 Q 0.6930000000000001 -0.27 0.6940000000000001 -0.25 Q 0.6940000000000001 -0.23 0.661 -0.23 Z"/></g><g transform="translate(10.844998893037843,8.359206285714285)"><path fill="rgb(0,0,0)" stroke="none" paint-order="stroke fill markers" d=" M 0.331 0.24 L 0.331 0.24 Q 0.331 0.25 0.321 0.25 Q 0.309 0.25 0.268 0.209 Q 0.20600000000000002 0.147 0.165 0.062 Q 0.099 -0.074 0.099 -0.25 Q 0.099 -0.419 0.162 -0.555 Q 0.214 -0.666 0.294 -0.733 Q 0.315 -0.75 0.321 -0.75 Q 0.331 -0.75 0.331 -0.74 Q 0.331 -0.735 0.318 -0.723 Q 0.157 -0.559 0.157 -0.25 Q 0.157 0.058 0.314 0.218 Q 0.331 0.23500000000000001 0.331 0.24 Z"/></g><g transform="translate(11.233998893037842,8.359206285714285)"><path fill="rgb(0,0,0)" stroke="none" paint-order="stroke fill markers" d=" M 0.334 -0.302 L 0.3 -0.165 Q 0.28300000000000003 -0.097 0.28300000000000003 -0.077 Q 0.28300000000000003 -0.025 0.32 -0.014 Q 0.328 -0.011 0.338 -0.011 Q 0.388 -0.011 0.429 -0.061 Q 0.456 -0.093 0.47100000000000003 -0.14200000000000002 Q 0.47400000000000003 -0.153 0.484 -0.153 Q 0.496 -0.153 0.496 -0.14300000000000002 Q 0.496 -0.11800000000000001 0.465 -0.07100000000000001 Q 0.41100000000000003 0.011 0.336 0.011 Q 0.268 0.011 0.23700000000000002 -0.046 Q 0.231 -0.055 0.228 -0.065 Q 0.20400000000000001 -0.017 0.162 0.002 Q 0.14300000000000002 0.011 0.123 0.011 Q 0.063 0.011 0.039 -0.024 Q 0.029 -0.037 0.029 -0.055 Q 0.029 -0.092 0.061 -0.107 Q 0.07200000000000001 -0.113 0.084 -0.113 Q 0.114 -0.113 0.12 -0.088 Q 0.121 -0.083 0.121 -0.078 Q 0.121 -0.044 0.08700000000000001 -0.028 Q 0.081 -0.025 0.074 -0.024 Q 0.095 -0.011 0.124 -0.011 Q 0.177 -0.011 0.20800000000000002 -0.082 Q 0.214 -0.097 0.219 -0.115 Q 0.273 -0.319 0.273 -0.353 Q 0.267 -0.41500000000000004 0.219 -0.42 Q 0.167 -0.42 0.124 -0.367 L 0.124 -0.366 Q 0.124 -0.365 0.123 -0.365 Q 0.108 -0.34500000000000003 0.096 -0.319 Q 0.091 -0.307 0.08700000000000001 -0.295 L 0.085 -0.289 Q 0.083 -0.278 0.07200000000000001 -0.278 Q 0.06 -0.278 0.06 -0.28800000000000003 Q 0.06 -0.313 0.092 -0.36 Q 0.146 -0.442 0.221 -0.442 Q 0.298 -0.442 0.329 -0.366 Q 0.361 -0.428 0.41400000000000003 -0.44 Q 0.424 -0.442 0.434 -0.442 Q 0.493 -0.442 0.517 -0.40900000000000003 Q 0.527 -0.395 0.527 -0.376 Q 0.527 -0.335 0.49 -0.321 Q 0.481 -0.318 0.47300000000000003 -0.318 Q 0.442 -0.318 0.436 -0.34500000000000003 Q 0.435 -0.34900000000000003 0.435 -0.353 Q 0.435 -0.383 0.464 -0.4 Q 0.47300000000000003 -0.405 0.483 -0.40700000000000003 Q 0.462 -0.42 0.433 -0.42 Q 0.365 -0.42 0.337 -0.314 Q 0.335 -0.308 0.334 -0.302 Z"/></g><g transform="translate(12.028221115260063,8.359206285714285)"><path fill="rgb(0,0,0)" stroke="none" paint-order="stroke fill markers" d=" M 0.661 -0.23 L 0.116 -0.23 Q 0.084 -0.23 0.083 -0.25 Q 0.083 -0.27 0.116 -0.27 L 0.661 -0.27 Q 0.6930000000000001 -0.27 0.6940000000000001 -0.25 Q 0.6940000000000001 -0.23 0.661 -0.23 Z"/></g><g transform="translate(13.028443337482285,8.359206285714285)"><path fill="rgb(0,0,0)" stroke="none" paint-order="stroke fill markers" d=" M 0.334 -0.302 L 0.3 -0.165 Q 0.28300000000000003 -0.097 0.28300000000000003 -0.077 Q 0.28300000000000003 -0.025 0.32 -0.014 Q 0.328 -0.011 0.338 -0.011 Q 0.388 -0.011 0.429 -0.061 Q 0.456 -0.093 0.47100000000000003 -0.14200000000000002 Q 0.47400000000000003 -0.153 0.484 -0.153 Q 0.496 -0.153 0.496 -0.14300000000000002 Q 0.496 -0.11800000000000001 0.465 -0.07100000000000001 Q 0.41100000000000003 0.011 0.336 0.011 Q 0.268 0.011 0.23700000000000002 -0.046 Q 0.231 -0.055 0.228 -0.065 Q 0.20400000000000001 -0.017 0.162 0.002 Q 0.14300000000000002 0.011 0.123 0.011 Q 0.063 0.011 0.039 -0.024 Q 0.029 -0.037 0.029 -0.055 Q 0.029 -0.092 0.061 -0.107 Q 0.07200000000000001 -0.113 0.084 -0.113 Q 0.114 -0.113 0.12 -0.088 Q 0.121 -0.083 0.121 -0.078 Q 0.121 -0.044 0.08700000000000001 -0.028 Q 0.081 -0.025 0.074 -0.024 Q 0.095 -0.011 0.124 -0.011 Q 0.177 -0.011 0.20800000000000002 -0.082 Q 0.214 -0.097 0.219 -0.115 Q 0.273 -0.319 0.273 -0.353 Q 0.267 -0.41500000000000004 0.219 -0.42 Q 0.167 -0.42 0.124 -0.367 L 0.124 -0.366 Q 0.124 -0.365 0.123 -0.365 Q 0.108 -0.34500000000000003 0.096 -0.319 Q 0.091 -0.307 0.08700000000000001 -0.295 L 0.085 -0.289 Q 0.083 -0.278 0.07200000000000001 -0.278 Q 0.06 -0.278 0.06 -0.28800000000000003 Q 0.06 -0.313 0.092 -0.36 Q 0.146 -0.442 0.221 -0.442 Q 0.298 -0.442 0.329 -0.366 Q 0.361 -0.428 0.41400000000000003 -0.44 Q 0.424 -0.442 0.434 -0.442 Q 0.493 -0.442 0.517 -0.40900000000000003 Q 0.527 -0.395 0.527 -0.376 Q 0.527 -0.335 0.49 -0.321 Q 0.481 -0.318 0.47300000000000003 -0.318 Q 0.442 -0.318 0.436 -0.34500000000000003 Q 0.435 -0.34900000000000003 0.435 -0.353 Q 0.435 -0.383 0.464 -0.4 Q 0.47300000000000003 -0.405 0.483 -0.40700000000000003 Q 0.462 -0.42 0.433 -0.42 Q 0.365 -0.42 0.337 -0.314 Q 0.335 -0.308 0.334 -0.302 Z"/></g><g transform="translate(13.600443337482284,8.509206285714285) scale(0.7,0.7)"><path fill="rgb(0,0,0)" stroke="none" paint-order="stroke fill markers" d=" M 0.46 -0.32 Q 0.46 -0.17400000000000002 0.423 -0.094 Q 0.364 0.018000000000000002 0.249 0.022 Q 0.158 0.022 0.10300000000000001 -0.05 Q 0.092 -0.063 0.084 -0.079 Q 0.039 -0.162 0.039 -0.32 Q 0.039 -0.467 0.076 -0.547 Q 0.126 -0.659 0.23800000000000002 -0.666 L 0.25 -0.666 Q 0.339 -0.666 0.395 -0.595 L 0.395 -0.594 Q 0.40900000000000003 -0.5760000000000001 0.42 -0.554 Q 0.46 -0.46900000000000003 0.46 -0.32 M 0.249 0 L 0.249 0 Q 0.312 0 0.34600000000000003 -0.061 Q 0.36 -0.088 0.366 -0.125 Q 0.377 -0.189 0.377 -0.332 Q 0.377 -0.47100000000000003 0.367 -0.527 Q 0.34900000000000003 -0.622 0.275 -0.641 Q 0.262 -0.644 0.249 -0.644 Q 0.179 -0.644 0.147 -0.5740000000000001 Q 0.136 -0.55 0.13 -0.516 Q 0.122 -0.462 0.122 -0.332 Q 0.122 -0.181 0.133 -0.121 Q 0.151 -0.025 0.221 -0.004 Q 0.23500000000000001 0 0.249 0 Z"/></g><g transform="translate(13.950443337482286,8.359206285714285)"><path fill="rgb(0,0,0)" stroke="none" paint-order="stroke fill markers" d=" M 0.289 -0.25 L 0.289 -0.25 Q 0.289 -0.081 0.226 0.055 Q 0.17400000000000002 0.166 0.094 0.233 Q 0.073 0.25 0.067 0.25 Q 0.057 0.25 0.057 0.24 Q 0.057 0.23500000000000001 0.07 0.223 Q 0.231 0.059000000000000004 0.231 -0.25 Q 0.231 -0.555 0.081 -0.712 L 0.076 -0.717 Q 0.057 -0.735 0.057 -0.74 Q 0.057 -0.75 0.067 -0.75 Q 0.079 -0.75 0.12 -0.709 Q 0.182 -0.647 0.223 -0.562 Q 0.289 -0.426 0.289 -0.25 Z"/></g><g transform="translate(14.339443337482285,7.879481885714284) scale(0.7,0.7)"><path fill="rgb(0,0,0)" stroke="none" paint-order="stroke fill markers" d=" M 0.449 -0.17400000000000002 L 0.449 -0.17400000000000002 L 0.421 0 L 0.05 0 Q 0.05 -0.025 0.056 -0.032 L 0.061 -0.037 L 0.253 -0.251 Q 0.358 -0.369 0.358 -0.47200000000000003 Q 0.358 -0.561 0.304 -0.607 L 0.303 -0.608 L 0.302 -0.608 Q 0.27 -0.635 0.224 -0.635 Q 0.152 -0.635 0.109 -0.5730000000000001 Q 0.097 -0.555 0.089 -0.533 Q 0.092 -0.534 0.10200000000000001 -0.534 Q 0.14200000000000002 -0.534 0.153 -0.498 L 0.153 -0.497 Q 0.155 -0.49 0.155 -0.482 Q 0.155 -0.442 0.117 -0.431 Q 0.109 -0.429 0.10300000000000001 -0.429 Q 0.066 -0.429 0.054 -0.46 Q 0.05 -0.47100000000000003 0.05 -0.485 Q 0.05 -0.562 0.109 -0.617 Q 0.162 -0.666 0.23700000000000002 -0.666 Q 0.34700000000000003 -0.666 0.40800000000000003 -0.592 Q 0.443 -0.549 0.448 -0.49 Q 0.449 -0.481 0.449 -0.47200000000000003 Q 0.449 -0.399 0.394 -0.333 Q 0.365 -0.299 0.304 -0.243 L 0.243 -0.189 L 0.233 -0.18 L 0.127 -0.077 L 0.307 -0.077 Q 0.395 -0.077 0.402 -0.085 Q 0.41200000000000003 -0.099 0.424 -0.17400000000000002 L 0.449 -0.17400000000000002 Z"/></g><rect fill="rgb(0,0,0)" stroke="none" x="10.844998893037843" y="8.765714785714284" width="3.8586767874430157" height="0.039999"/><g transform="translate(12.038721115260065,9.721665285714284)"><path fill="rgb(0,0,0)" stroke="none" paint-order="stroke fill markers" d=" M 0.449 -0.17400000000000002 L 0.449 -0.17400000000000002 L 0.421 0 L 0.05 0 Q 0.05 -0.025 0.056 -0.032 L 0.061 -0.037 L 0.253 -0.251 Q 0.358 -0.369 0.358 -0.47200000000000003 Q 0.358 -0.561 0.304 -0.607 L 0.303 -0.608 L 0.302 -0.608 Q 0.27 -0.635 0.224 -0.635 Q 0.152 -0.635 0.109 -0.5730000000000001 Q 0.097 -0.555 0.089 -0.533 Q 0.092 -0.534 0.10200000000000001 -0.534 Q 0.14200000000000002 -0.534 0.153 -0.498 L 0.153 -0.497 Q 0.155 -0.49 0.155 -0.482 Q 0.155 -0.442 0.117 -0.431 Q 0.109 -0.429 0.10300000000000001 -0.429 Q 0.066 -0.429 0.054 -0.46 Q 0.05 -0.47100000000000003 0.05 -0.485 Q 0.05 -0.562 0.109 -0.617 Q 0.162 -0.666 0.23700000000000002 -0.666 Q 0.34700000000000003 -0.666 0.40800000000000003 -0.592 Q 0.443 -0.549 0.448 -0.49 Q 0.449 -0.481 0.449 -0.47200000000000003 Q 0.449 -0.399 0.394 -0.333 Q 0.365 -0.299 0.304 -0.243 L 0.243 -0.189 L 0.233 -0.18 L 0.127 -0.077 L 0.307 -0.077 Q 0.395 -0.077 0.402 -0.085 Q 0.41200000000000003 -0.099 0.424 -0.17400000000000002 L 0.449 -0.17400000000000002 Z"/></g><g transform="translate(12.538721115260065,9.721665285714284)"><path fill="rgb(0,0,0)" stroke="none" paint-order="stroke fill markers" d=" M 0.518 -0.373 L 0.40800000000000003 -0.373 Q 0.439 -0.329 0.439 -0.264 Q 0.439 -0.15 0.354 -0.065 Q 0.276 0.009000000000000001 0.188 0.011 Q 0.10400000000000001 0.011 0.062 -0.057 Q 0.038 -0.097 0.038 -0.147 Q 0.038 -0.23600000000000002 0.10300000000000001 -0.322 Q 0.178 -0.421 0.28200000000000003 -0.43 Q 0.291 -0.431 0.3 -0.431 L 0.528 -0.431 Q 0.562 -0.431 0.5660000000000001 -0.41500000000000004 L 0.5660000000000001 -0.41500000000000004 Q 0.5670000000000001 -0.41100000000000003 0.5670000000000001 -0.40700000000000003 Q 0.5670000000000001 -0.373 0.518 -0.373 M 0.189 -0.011 Q 0.247 -0.011 0.298 -0.067 Q 0.311 -0.08 0.321 -0.096 Q 0.363 -0.158 0.373 -0.249 Q 0.375 -0.264 0.375 -0.276 Q 0.375 -0.366 0.295 -0.372 L 0.294 -0.373 L 0.28300000000000003 -0.373 Q 0.20700000000000002 -0.373 0.158 -0.306 Q 0.152 -0.298 0.147 -0.29 Q 0.107 -0.223 0.101 -0.132 Q 0.1 -0.125 0.1 -0.11900000000000001 Q 0.1 -0.04 0.156 -0.017 Q 0.171 -0.011 0.189 -0.011 Z"/></g><g transform="translate(13.145721115260065,9.432776285714285) scale(0.7,0.7)"><path fill="rgb(0,0,0)" stroke="none" paint-order="stroke fill markers" d=" M 0.449 -0.17400000000000002 L 0.449 -0.17400000000000002 L 0.421 0 L 0.05 0 Q 0.05 -0.025 0.056 -0.032 L 0.061 -0.037 L 0.253 -0.251 Q 0.358 -0.369 0.358 -0.47200000000000003 Q 0.358 -0.561 0.304 -0.607 L 0.303 -0.608 L 0.302 -0.608 Q 0.27 -0.635 0.224 -0.635 Q 0.152 -0.635 0.109 -0.5730000000000001 Q 0.097 -0.555 0.089 -0.533 Q 0.092 -0.534 0.10200000000000001 -0.534 Q 0.14200000000000002 -0.534 0.153 -0.498 L 0.153 -0.497 Q 0.155 -0.49 0.155 -0.482 Q 0.155 -0.442 0.117 -0.431 Q 0.109 -0.429 0.10300000000000001 -0.429 Q 0.066 -0.429 0.054 -0.46 Q 0.05 -0.47100000000000003 0.05 -0.485 Q 0.05 -0.562 0.109 -0.617 Q 0.162 -0.666 0.23700000000000002 -0.666 Q 0.34700000000000003 -0.666 0.40800000000000003 -0.592 Q 0.443 -0.549 0.448 -0.49 Q 0.449 -0.481 0.449 -0.47200000000000003 Q 0.449 -0.399 0.394 -0.333 Q 0.365 -0.299 0.304 -0.243 L 0.243 -0.189 L 0.233 -0.18 L 0.127 -0.077 L 0.307 -0.077 Q 0.395 -0.077 0.402 -0.085 Q 0.41200000000000003 -0.099 0.424 -0.17400000000000002 L 0.449 -0.17400000000000002 Z"/></g><g transform="translate(14.73783330367743,7.325714285714285)"><path fill="rgb(0,0,0)" stroke="none" paint-order="stroke fill markers" d=" M 0.0419921875 2.958984375 Q 0.033203125 2.958984375 0.033203125 2.9501953125 Q 0.033203125 2.94580078125 0.03515625 2.94384765625 Q 0.1591796875 2.79736328125 0.2431640625 2.6201171875 Q 0.3271484375 2.44287109375 0.37255859375 2.252197265625 Q 0.41796875 2.0615234375 0.43603515625 1.86767578125 Q 0.4541015625 1.673828125 0.4541015625 1.4599609375 Q 0.4541015625 1.2451171875 0.43603515625 1.05078125 Q 0.41796875 0.8564453125 0.37255859375 0.66650390625 Q 0.3271484375 0.4765625 0.2431640625 0.298583984375 Q 0.1591796875 0.12060546875 0.03515625 -0.02490234375 Q 0.033203125 -0.02685546875 0.033203125 -0.03076171875 Q 0.033203125 -0.0400390625 0.0419921875 -0.0400390625 L 0.07080078125 -0.0400390625 Q 0.0712890625 -0.0400390625 0.0771484375 -0.037109375 Q 0.21435546875 0.10595703125 0.30859375 0.282470703125 Q 0.40283203125 0.458984375 0.45654296875 0.65283203125 Q 0.51025390625 0.8466796875 0.53271484375 1.04541015625 Q 0.55517578125 1.244140625 0.55517578125 1.4599609375 Q 0.55517578125 1.6748046875 0.53271484375 1.873291015625 Q 0.51025390625 2.07177734375 0.456298828125 2.265869140625 Q 0.40234375 2.4599609375 0.30859375 2.635986328125 Q 0.21484375 2.81201171875 0.0771484375 2.9560546875 Q 0.0712890625 2.958984375 0.07080078125 2.958984375 L 0.0419921875 2.958984375 Z"/></g><g transform="translate(15.696499970344094,9.035714285714285)"><path fill="rgb(0,0,0)" stroke="none" paint-order="stroke fill markers" d=" M 0.39 -0.231 L 0.39 -0.231 L 0.111 -0.231 Q 0.111 -0.129 0.14100000000000001 -0.081 Q 0.189 -0.019 0.254 -0.014 Q 0.323 -0.014 0.365 -0.07 Q 0.38 -0.09 0.389 -0.117 Q 0.392 -0.131 0.402 -0.131 Q 0.41500000000000004 -0.131 0.41500000000000004 -0.11900000000000001 Q 0.41500000000000004 -0.097 0.387 -0.059000000000000004 Q 0.34600000000000003 -0.003 0.279 0.008 Q 0.264 0.011 0.248 0.011 Q 0.154 0.011 0.088 -0.061 Q 0.028 -0.127 0.028 -0.22 Q 0.028 -0.324 0.1 -0.392 Q 0.158 -0.448 0.23600000000000002 -0.448 Q 0.34900000000000003 -0.448 0.394 -0.352 Q 0.41500000000000004 -0.307 0.41500000000000004 -0.252 Q 0.41500000000000004 -0.23500000000000001 0.40800000000000003 -0.232 Q 0.405 -0.231 0.39 -0.231 M 0.112 -0.252 L 0.112 -0.252 L 0.34900000000000003 -0.252 Q 0.34900000000000003 -0.34700000000000003 0.307 -0.395 Q 0.279 -0.426 0.23600000000000002 -0.426 Q 0.185 -0.426 0.15 -0.379 Q 0.115 -0.334 0.112 -0.252 Z"/></g><g transform="translate(16.140499970344095,9.035714285714285)"><path fill="rgb(0,0,0)" stroke="none" paint-order="stroke fill markers" d=" M 0.28700000000000003 -0.23500000000000001 L 0.421 -0.062 Q 0.442 -0.036000000000000004 0.47500000000000003 -0.032 Q 0.488 -0.031 0.516 -0.031 L 0.516 0 Q 0.47100000000000003 -0.003 0.42 -0.003 Q 0.402 -0.003 0.312 0 L 0.312 -0.031 Q 0.343 -0.032 0.34800000000000003 -0.056 Q 0.34800000000000003 -0.06 0.327 -0.089 L 0.251 -0.189 Q 0.17500000000000002 -0.099 0.165 -0.078 Q 0.161 -0.069 0.161 -0.062 Q 0.161 -0.035 0.19 -0.031 L 0.19 0 Q 0.11800000000000001 -0.003 0.095 -0.003 Q 0.051000000000000004 -0.003 0.012 0 L 0.012 -0.031 Q 0.09 -0.031 0.14 -0.091 L 0.234 -0.21 L 0.135 -0.339 Q 0.1 -0.384 0.085 -0.392 Q 0.08 -0.395 0.074 -0.396 L 0.073 -0.396 Q 0.059000000000000004 -0.4 0.017 -0.4 L 0.017 -0.431 Q 0.058 -0.428 0.112 -0.428 Q 0.14200000000000002 -0.428 0.22 -0.431 L 0.22 -0.4 Q 0.186 -0.398 0.185 -0.375 Q 0.185 -0.367 0.194 -0.357 L 0.272 -0.256 L 0.334 -0.334 Q 0.34900000000000003 -0.352 0.34900000000000003 -0.369 Q 0.34900000000000003 -0.397 0.32 -0.4 L 0.32 -0.431 Q 0.359 -0.428 0.41600000000000004 -0.428 Q 0.459 -0.428 0.498 -0.431 L 0.498 -0.4 Q 0.422 -0.398 0.379 -0.34800000000000003 Q 0.36 -0.327 0.28700000000000003 -0.23500000000000001 Z"/></g><g transform="translate(16.668499970344094,9.035714285714285)"><path fill="rgb(0,0,0)" stroke="none" paint-order="stroke fill markers" d=" M 0.17500000000000002 -0.337 L 0.17500000000000002 -0.114 Q 0.17500000000000002 -0.094 0.183 -0.081 L 0.189 -0.07200000000000001 Q 0.229 -0.011 0.294 -0.011 Q 0.357 -0.011 0.4 -0.077 Q 0.438 -0.135 0.438 -0.216 Q 0.438 -0.319 0.382 -0.379 Q 0.34700000000000003 -0.417 0.304 -0.417 Q 0.232 -0.417 0.186 -0.354 Q 0.18 -0.34600000000000003 0.17500000000000002 -0.337 M 0.17500000000000002 -0.059000000000000004 L 0.17500000000000002 -0.059000000000000004 L 0.17500000000000002 -0.05 L 0.17500000000000002 0.11800000000000001 Q 0.17500000000000002 0.152 0.191 0.158 Q 0.202 0.163 0.253 0.163 L 0.253 0.194 Q 0.148 0.191 0.14 0.191 Q 0.13 0.191 0.028 0.194 L 0.028 0.163 Q 0.08700000000000001 0.163 0.097 0.154 L 0.099 0.152 L 0.099 0.152 Q 0.106 0.14300000000000002 0.106 0.11800000000000001 L 0.106 -0.35000000000000003 Q 0.106 -0.385 0.092 -0.393 Q 0.079 -0.4 0.028 -0.4 L 0.028 -0.431 L 0.17200000000000001 -0.442 L 0.17200000000000001 -0.376 Q 0.232 -0.442 0.312 -0.442 Q 0.403 -0.442 0.465 -0.369 Q 0.521 -0.304 0.521 -0.216 Q 0.521 -0.112 0.444 -0.044 Q 0.38 0.011 0.298 0.011 Q 0.228 0.011 0.186 -0.04 Q 0.177 -0.051000000000000004 0.17500000000000002 -0.059000000000000004 Z"/></g><g transform="translate(17.224499970344095,7.625714285714285)"><path fill="rgb(0,0,0)" stroke="none" paint-order="stroke fill markers" d=" M 0.662109375 2.35693359375 Q 0.5390625 2.248046875 0.451171875 2.10888671875 Q 0.36328125 1.9697265625 0.31005859375 1.81494140625 Q 0.2568359375 1.66015625 0.232421875 1.494873046875 Q 0.2080078125 1.32958984375 0.2080078125 1.16015625 Q 0.2080078125 0.98974609375 0.232421875 0.823974609375 Q 0.2568359375 0.658203125 0.309814453125 0.50390625 Q 0.36279296875 0.349609375 0.450927734375 0.210205078125 Q 0.5390625 0.07080078125 0.662109375 -0.0380859375 Q 0.662109375 -0.0400390625 0.6669921875 -0.0400390625 L 0.69287109375 -0.0400390625 Q 0.69580078125 -0.0400390625 0.698486328125 -0.037109375 Q 0.701171875 -0.0341796875 0.701171875 -0.03076171875 Q 0.701171875 -0.02685546875 0.69921875 -0.02490234375 Q 0.5849609375 0.087890625 0.506103515625 0.22607421875 Q 0.42724609375 0.3642578125 0.380859375 0.51708984375 Q 0.33447265625 0.669921875 0.314697265625 0.8310546875 Q 0.294921875 0.9921875 0.294921875 1.16015625 Q 0.294921875 1.32763671875 0.314453125 1.486572265625 Q 0.333984375 1.6455078125 0.380859375 1.80029296875 Q 0.427734375 1.955078125 0.5068359375 2.09326171875 Q 0.5859375 2.2314453125 0.69921875 2.34423828125 Q 0.701171875 2.34619140625 0.701171875 2.35009765625 Q 0.701171875 2.35302734375 0.6982421875 2.35595703125 Q 0.6953125 2.35888671875 0.69287109375 2.35888671875 L 0.6669921875 2.35888671875 Q 0.662109375 2.35888671875 0.662109375 2.35693359375 Z"/></g><g transform="translate(17.994657593540666,8.359206285714285)"><path fill="rgb(0,0,0)" stroke="none" paint-order="stroke fill markers" d=" M 0.28400000000000003 -0.625 Q 0.28400000000000003 -0.594 0.253 -0.578 Q 0.242 -0.5720000000000001 0.231 -0.5720000000000001 Q 0.201 -0.5720000000000001 0.194 -0.599 Q 0.193 -0.604 0.193 -0.608 Q 0.193 -0.636 0.221 -0.653 Q 0.234 -0.661 0.247 -0.661 Q 0.277 -0.661 0.28300000000000003 -0.634 L 0.28300000000000003 -0.633 Q 0.28400000000000003 -0.629 0.28400000000000003 -0.625 M 0.20800000000000002 -0.249 L 0.169 -0.14400000000000002 Q 0.14100000000000001 -0.063 0.14 -0.044 Q 0.14 -0.011 0.164 -0.011 Q 0.227 -0.011 0.262 -0.123 L 0.266 -0.135 Q 0.271 -0.151 0.276 -0.152 L 0.276 -0.153 L 0.281 -0.153 Q 0.293 -0.153 0.293 -0.14300000000000002 Q 0.293 -0.125 0.271 -0.079 Q 0.228 0.011 0.162 0.011 Q 0.109 0.011 0.088 -0.033 Q 0.08 -0.051000000000000004 0.08 -0.07100000000000001 Q 0.08 -0.091 0.10300000000000001 -0.151 Q 0.17300000000000001 -0.339 0.17200000000000001 -0.336 Q 0.183 -0.364 0.183 -0.388 Q 0.183 -0.42 0.158 -0.42 Q 0.10300000000000001 -0.42 0.068 -0.329 L 0.068 -0.328 Q 0.062 -0.313 0.057 -0.296 Q 0.046 -0.279 0.041 -0.278 Q 0.029 -0.278 0.029 -0.28800000000000003 Q 0.029 -0.306 0.051000000000000004 -0.35100000000000003 Q 0.094 -0.442 0.161 -0.442 Q 0.214 -0.442 0.23500000000000001 -0.397 Q 0.243 -0.38 0.243 -0.36 Q 0.243 -0.34 0.23 -0.307 Q 0.213 -0.261 0.20800000000000002 -0.249 Z"/></g><g transform="translate(18.339657593540664,8.359206285714285)"><path fill="rgb(0,0,0)" stroke="none" paint-order="stroke fill markers" d=" M 0.045 0.122 L 0.045 0.122 L 0.157 -0.323 Q 0.164 -0.353 0.164 -0.374 Q 0.164 -0.42 0.133 -0.42 Q 0.092 -0.42 0.066 -0.325 Q 0.063 -0.314 0.06 -0.301 Q 0.049 -0.279 0.043000000000000003 -0.278 Q 0.031 -0.278 0.031 -0.28800000000000003 Q 0.031 -0.304 0.049 -0.355 Q 0.056 -0.373 0.062 -0.385 Q 0.08600000000000001 -0.434 0.122 -0.441 Q 0.129 -0.442 0.136 -0.442 Q 0.19 -0.442 0.215 -0.398 L 0.215 -0.397 Q 0.223 -0.384 0.226 -0.367 Q 0.289 -0.442 0.357 -0.442 Q 0.428 -0.442 0.466 -0.378 Q 0.488 -0.333 0.49 -0.28200000000000003 Q 0.49 -0.17400000000000002 0.41400000000000003 -0.082 Q 0.34500000000000003 0.002 0.263 0.01 Q 0.256 0.011 0.249 0.011 Q 0.186 0.011 0.157 -0.053 Q 0.12 0.079 0.109 0.14100000000000001 Q 0.108 0.146 0.108 0.147 Q 0.108 0.158 0.121 0.161 L 0.122 0.161 L 0.122 0.161 Q 0.134 0.163 0.158 0.163 Q 0.18 0.163 0.182 0.17400000000000002 Q 0.182 0.194 0.164 0.194 L 0.066 0.191 L 0.065 0.191 L -0.017 0.194 L -0.019 0.194 Q -0.032 0.194 -0.032 0.182 Q -0.026000000000000002 0.164 -0.009000000000000001 0.163 Q 0.028 0.163 0.036000000000000004 0.15 L 0.037 0.149 Q 0.039 0.145 0.041 0.138 Q 0.042 0.133 0.045 0.122 M 0.221 -0.312 L 0.221 -0.312 L 0.17200000000000001 -0.116 Q 0.169 -0.10400000000000001 0.169 -0.1 Q 0.169 -0.077 0.187 -0.048 Q 0.198 -0.029 0.215 -0.019 Q 0.23 -0.011 0.248 -0.011 Q 0.299 -0.011 0.34400000000000003 -0.075 Q 0.357 -0.093 0.367 -0.114 Q 0.394 -0.171 0.41200000000000003 -0.268 Q 0.418 -0.303 0.418 -0.326 Q 0.418 -0.405 0.37 -0.418 Q 0.362 -0.42 0.354 -0.42 Q 0.316 -0.42 0.273 -0.382 Q 0.23 -0.34600000000000003 0.221 -0.312 Z"/></g><g transform="translate(18.842657593540665,8.509206285714285) scale(0.7,0.7)"><path fill="rgb(0,0,0)" stroke="none" paint-order="stroke fill markers" d=" M 0.46 -0.32 Q 0.46 -0.17400000000000002 0.423 -0.094 Q 0.364 0.018000000000000002 0.249 0.022 Q 0.158 0.022 0.10300000000000001 -0.05 Q 0.092 -0.063 0.084 -0.079 Q 0.039 -0.162 0.039 -0.32 Q 0.039 -0.467 0.076 -0.547 Q 0.126 -0.659 0.23800000000000002 -0.666 L 0.25 -0.666 Q 0.339 -0.666 0.395 -0.595 L 0.395 -0.594 Q 0.40900000000000003 -0.5760000000000001 0.42 -0.554 Q 0.46 -0.46900000000000003 0.46 -0.32 M 0.249 0 L 0.249 0 Q 0.312 0 0.34600000000000003 -0.061 Q 0.36 -0.088 0.366 -0.125 Q 0.377 -0.189 0.377 -0.332 Q 0.377 -0.47100000000000003 0.367 -0.527 Q 0.34900000000000003 -0.622 0.275 -0.641 Q 0.262 -0.644 0.249 -0.644 Q 0.179 -0.644 0.147 -0.5740000000000001 Q 0.136 -0.55 0.13 -0.516 Q 0.122 -0.462 0.122 -0.332 Q 0.122 -0.181 0.133 -0.121 Q 0.151 -0.025 0.221 -0.004 Q 0.23500000000000001 0 0.249 0 Z"/></g><g transform="translate(19.192657593540666,8.359206285714285)"><path fill="rgb(0,0,0)" stroke="none" paint-order="stroke fill markers" d=" M 0.334 -0.302 L 0.3 -0.165 Q 0.28300000000000003 -0.097 0.28300000000000003 -0.077 Q 0.28300000000000003 -0.025 0.32 -0.014 Q 0.328 -0.011 0.338 -0.011 Q 0.388 -0.011 0.429 -0.061 Q 0.456 -0.093 0.47100000000000003 -0.14200000000000002 Q 0.47400000000000003 -0.153 0.484 -0.153 Q 0.496 -0.153 0.496 -0.14300000000000002 Q 0.496 -0.11800000000000001 0.465 -0.07100000000000001 Q 0.41100000000000003 0.011 0.336 0.011 Q 0.268 0.011 0.23700000000000002 -0.046 Q 0.231 -0.055 0.228 -0.065 Q 0.20400000000000001 -0.017 0.162 0.002 Q 0.14300000000000002 0.011 0.123 0.011 Q 0.063 0.011 0.039 -0.024 Q 0.029 -0.037 0.029 -0.055 Q 0.029 -0.092 0.061 -0.107 Q 0.07200000000000001 -0.113 0.084 -0.113 Q 0.114 -0.113 0.12 -0.088 Q 0.121 -0.083 0.121 -0.078 Q 0.121 -0.044 0.08700000000000001 -0.028 Q 0.081 -0.025 0.074 -0.024 Q 0.095 -0.011 0.124 -0.011 Q 0.177 -0.011 0.20800000000000002 -0.082 Q 0.214 -0.097 0.219 -0.115 Q 0.273 -0.319 0.273 -0.353 Q 0.267 -0.41500000000000004 0.219 -0.42 Q 0.167 -0.42 0.124 -0.367 L 0.124 -0.366 Q 0.124 -0.365 0.123 -0.365 Q 0.108 -0.34500000000000003 0.096 -0.319 Q 0.091 -0.307 0.08700000000000001 -0.295 L 0.085 -0.289 Q 0.083 -0.278 0.07200000000000001 -0.278 Q 0.06 -0.278 0.06 -0.28800000000000003 Q 0.06 -0.313 0.092 -0.36 Q 0.146 -0.442 0.221 -0.442 Q 0.298 -0.442 0.329 -0.366 Q 0.361 -0.428 0.41400000000000003 -0.44 Q 0.424 -0.442 0.434 -0.442 Q 0.493 -0.442 0.517 -0.40900000000000003 Q 0.527 -0.395 0.527 -0.376 Q 0.527 -0.335 0.49 -0.321 Q 0.481 -0.318 0.47300000000000003 -0.318 Q 0.442 -0.318 0.436 -0.34500000000000003 Q 0.435 -0.34900000000000003 0.435 -0.353 Q 0.435 -0.383 0.464 -0.4 Q 0.47300000000000003 -0.405 0.483 -0.40700000000000003 Q 0.462 -0.42 0.433 -0.42 Q 0.365 -0.42 0.337 -0.314 Q 0.335 -0.308 0.334 -0.302 Z"/></g><rect fill="rgb(0,0,0)" stroke="none" x="17.994657593540666" y="8.765714785714286" width="1.77" height="0.039999"/><g transform="translate(18.609657593540664,9.721665285714286)"><path fill="rgb(0,0,0)" stroke="none" paint-order="stroke fill markers" d=" M 0.255 -0.55 L 0.209 -0.366 Q 0.272 -0.442 0.357 -0.442 Q 0.449 -0.442 0.468 -0.369 Q 0.47200000000000003 -0.353 0.47200000000000003 -0.334 Q 0.47200000000000003 -0.274 0.41000000000000003 -0.114 Q 0.393 -0.066 0.393 -0.044 Q 0.393 -0.011 0.418 -0.011 Q 0.468 -0.011 0.502 -0.088 Q 0.512 -0.109 0.519 -0.135 Q 0.524 -0.151 0.529 -0.152 L 0.529 -0.153 L 0.534 -0.153 Q 0.546 -0.153 0.546 -0.14300000000000002 Q 0.546 -0.126 0.525 -0.081 Q 0.483 0.011 0.41500000000000004 0.011 Q 0.363 0.011 0.342 -0.032 Q 0.333 -0.05 0.333 -0.07200000000000001 Q 0.333 -0.092 0.34400000000000003 -0.121 Q 0.40800000000000003 -0.28500000000000003 0.40800000000000003 -0.35100000000000003 Q 0.40800000000000003 -0.42 0.354 -0.42 Q 0.267 -0.42 0.20600000000000002 -0.323 Q 0.198 -0.311 0.192 -0.298 L 0.179 -0.248 L 0.163 -0.181 L 0.163 -0.18 L 0.14 -0.091 Q 0.124 -0.022 0.121 -0.016 Q 0.114 0.006 0.091 0.01 Q 0.088 0.011 0.084 0.011 Q 0.056 0.011 0.055 -0.017 Q 0.055 -0.025 0.059000000000000004 -0.04 L 0.187 -0.55 L 0.134 -0.55 Q 0.109 -0.55 0.107 -0.558 Q 0.106 -0.559 0.106 -0.562 Q 0.106 -0.5740000000000001 0.126 -0.5750000000000001 L 0.127 -0.5750000000000001 L 0.137 -0.5750000000000001 L 0.193 -0.5750000000000001 Q 0.20700000000000002 -0.631 0.20700000000000002 -0.635 Q 0.20700000000000002 -0.646 0.193 -0.649 L 0.193 -0.649 Q 0.181 -0.652 0.157 -0.652 Q 0.135 -0.652 0.133 -0.663 Q 0.133 -0.681 0.152 -0.684 Q 0.272 -0.6940000000000001 0.274 -0.6940000000000001 Q 0.28800000000000003 -0.6940000000000001 0.28800000000000003 -0.682 Q 0.28800000000000003 -0.677 0.274 -0.627 Q 0.265 -0.588 0.261 -0.5750000000000001 L 0.446 -0.5750000000000001 Q 0.47400000000000003 -0.5750000000000001 0.47600000000000003 -0.5660000000000001 Q 0.47700000000000004 -0.5640000000000001 0.47700000000000004 -0.562 Q 0.47000000000000003 -0.55 0.449 -0.55 L 0.255 -0.55 Z"/></g><g transform="translate(19.79881521673724,7.625714285714285)"><path fill="rgb(0,0,0)" stroke="none" paint-order="stroke fill markers" d=" M 0.04296875 2.35888671875 Q 0.0341796875 2.35888671875 0.0341796875 2.35009765625 Q 0.0341796875 2.34619140625 0.0361328125 2.34423828125 Q 0.150390625 2.2314453125 0.22900390625 2.093017578125 Q 0.3076171875 1.95458984375 0.35400390625 1.802001953125 Q 0.400390625 1.6494140625 0.420166015625 1.489990234375 Q 0.43994140625 1.33056640625 0.43994140625 1.1591796875 Q 0.43994140625 0.98583984375 0.420166015625 0.82763671875 Q 0.400390625 0.66943359375 0.3544921875 0.517578125 Q 0.30859375 0.36572265625 0.22900390625 0.226318359375 Q 0.1494140625 0.0869140625 0.0361328125 -0.02490234375 Q 0.0341796875 -0.02685546875 0.0341796875 -0.03076171875 Q 0.0341796875 -0.0400390625 0.04296875 -0.0400390625 L 0.06884765625 -0.0400390625 Q 0.072265625 -0.0400390625 0.07421875 -0.0380859375 Q 0.19775390625 0.0712890625 0.28564453125 0.210693359375 Q 0.37353515625 0.35009765625 0.42626953125 0.5048828125 Q 0.47900390625 0.65966796875 0.5029296875 0.82470703125 Q 0.52685546875 0.98974609375 0.52685546875 1.16015625 Q 0.52685546875 1.32958984375 0.5029296875 1.494140625 Q 0.47900390625 1.65869140625 0.42626953125 1.813720703125 Q 0.37353515625 1.96875 0.28564453125 2.108154296875 Q 0.19775390625 2.24755859375 0.07421875 2.35693359375 Q 0.072265625 2.35888671875 0.06884765625 2.35888671875 L 0.04296875 2.35888671875 Z"/></g></g><path fill="rgb(255,255,255)" stroke="none" paint-order="stroke fill markers" d=" M 37.5 109 L 166.5 109 C 168.43299662440776 109 170 110.56700337559222 170 112.5 L 170 140.5 C 170 142.43299662440776 168.43299662440776 144 166.5 144 L 37.5 144 C 35.56700337559222 144 34 142.43299662440776 34 140.5 L 34 112.5 C 34 110.56700337559222 35.56700337559222 109 37.5 109 Z" fill-opacity="1"/><path fill="none" stroke="rgb(179,179,179)" paint-order="fill stroke markers" d=" M 37.5 109 L 166.5 109 C 168.43299662440776 109 170 110.56700337559222 170 112.5 L 170 140.5 C 170 142.43299662440776 168.43299662440776 144 166.5 144 L 37.5 144 C 35.56700337559222 144 34 142.43299662440776 34 140.5 L 34 112.5 C 34 110.56700337559222 35.56700337559222 109 37.5 109 Z" stroke-opacity="1" stroke-linecap="round" stroke-linejoin="round" stroke-miterlimit="10"/><text fill="rgb(0,0,0)" stroke="none" font-family="geogebra-sans-serif, sans-serif" font-size="24px" font-style="normal" font-weight="normal" text-decoration="normal" x="44" y="136" text-anchor="start" dominant-baseline="alphabetic" fill-opacity="1">Show SVG</text><path fill="rgb(255,255,255)" stroke="none" paint-order="stroke fill markers" d=" M 204.5 106 L 380.5 106 C 382.4329966244078 106 384 107.56700337559222 384 109.5 L 384 137.5 C 384 139.43299662440776 382.4329966244078 141 380.5 141 L 204.5 141 C 202.56700337559224 141 201 139.43299662440776 201 137.5 L 201 109.5 C 201 107.56700337559222 202.56700337559224 106 204.5 106 Z" fill-opacity="1"/><path fill="none" stroke="rgb(179,179,179)" paint-order="fill stroke markers" d=" M 204.5 106 L 380.5 106 C 382.4329966244078 106 384 107.56700337559222 384 109.5 L 384 137.5 C 384 139.43299662440776 382.4329966244078 141 380.5 141 L 204.5 141 C 202.56700337559224 141 201 139.43299662440776 201 137.5 L 201 109.5 C 201 107.56700337559222 202.56700337559224 106 204.5 106 Z" stroke-opacity="1" stroke-linecap="round" stroke-linejoin="round" stroke-miterlimit="10"/><text fill="rgb(0,0,0)" stroke="none" font-family="geogebra-sans-serif, sans-serif" font-size="24px" font-style="normal" font-weight="normal" text-decoration="normal" x="211" y="133" text-anchor="start" dominant-baseline="alphabetic" fill-opacity="1">Download SVG</text><path fill="rgb(255,255,255)" stroke="none" paint-order="stroke fill markers" fill-rule="evenodd" d=" M 212 30 L 722 30 C 724.2091389993232 30 726 31.790861000676827 726 34 L 726 75 C 726 77.20913899932317 724.2091389993232 79 722 79 L 212 79 C 209.7908610006768 79 208 77.20913899932317 208 75 L 208 34 C 208 31.790861000676827 209.7908610006768 30 212 30 Z" fill-opacity="1"/><path fill="none" stroke="rgb(180,179,186)" paint-order="fill stroke markers" d=" M 212 30 L 722 30 C 724.2091389993232 30 726 31.790861000676827 726 34 L 726 75 C 726 77.20913899932317 724.2091389993232 79 722 79 L 212 79 C 209.7908610006768 79 208 77.20913899932317 208 75 L 208 34 C 208 31.790861000676827 209.7908610006768 30 212 30 Z" stroke-opacity="1" stroke-linecap="round" stroke-linejoin="round" stroke-miterlimit="10"/><text fill="rgb(0,0,0)" stroke="none" font-family="geogebra-sans-serif, sans-serif" font-size="32px" font-style="normal" font-weight="normal" text-decoration="normal" x="210" y="66" text-anchor="start" dominant-baseline="alphabetic" fill-opacity="1">\psi(x,0)=A\exp\left(-\frac{(x-x</text><text fill="rgb(0,0,0)" stroke="none" font-family="geogebra-sans-serif, sans-serif" font-size="28px" font-style="normal" font-weight="normal" text-decoration="normal" x="623" y="80" text-anchor="start" dominant-baseline="alphabetic" fill-opacity="1">0</text><text fill="rgb(0,0,0)" stroke="none" font-family="geogebra-sans-serif, sans-serif" font-size="32px" font-style="normal" font-weight="normal" text-decoration="normal" x="639" y="66" text-anchor="start" dominant-baseline="alphabetic" fill-opacity="1">)^2}{</text><text fill="rgb(0,0,0)" stroke="none" font-family="geogebra-sans-serif, sans-serif" font-size="32px" font-style="normal" font-weight="normal" text-decoration="normal" x="30" y="66" text-anchor="start" dominant-baseline="alphabetic" fill-opacity="1">Enter LaTeX</text></g></g></g></g></svg>